<svg

   viewBox="0 -960 292.13715 273.58765"
   fill="#e0af68"
   id="svg4"
   sodipodi:docname="partly_cloudy_day_24dp_E0AF68_FILL0_wght400_GRAD0_opsz24.svg"
   xml:space="preserve"
   xmlns:inkscape="http://www.inkscape.org/namespaces/inkscape"
   xmlns:sodipodi="http://sodipodi.sourceforge.net/DTD/sodipodi-0.dtd"
   xmlns="http://www.w3.org/2000/svg"
   xmlns:svg="http://www.w3.org/2000/svg"><defs
     id="defs8" /><sodipodi:namedview
     id="namedview6"
     pagecolor="#ffffff"
     bordercolor="#999999"
     borderopacity="1"
     inkscape:showpageshadow="0"
     inkscape:pageopacity="0"
     inkscape:pagecheckerboard="0"
     inkscape:deskcolor="#d1d1d1"
     showgrid="false" /><g
     id="g1193"
     transform="matrix(0.33800751,0,0,0.35120376,-11.000367,-644.96594)"><path
       d="m 416.83662,-737.01228 v -160 h 80 v 160 z m 266,110 -56,-56 113,-114 56,57 z m 54,209.99996 v -80 h 160 v 80 z m 3,299 -113,-113 56,-56 114,112 z m -509,-508.99996 -113,-113 57,-57 112,114 z m 306,395.99996 c -373.33333,-470.66666 -186.66666,-235.33332 0,0 z m 0,0 c -29.1302,-67.58658 13.19453,-95.85299 52.5,-137 18.33333,-26.66667 27.5,-56.33333 27.5,-89 0,-44 -15.66667,-81.66666 -47,-112.99996 -31.33333,-31.3333 -69,-47 -113,-47 -40,0 -75,13 -105,39 -30,26 -47.66667,58.99999 -53,98.99996 -13.33333,-3.33333 -27,-6.33333 -41,-9 -89.74587,-6.46549 12.95629,-129.04686 41.5,-152.99996 45.66667,-37.3333 98.16667,-56 157.5,-56 66.66667,0 123.33333,23.3333 170,70 46.66667,46.6667 70,103.33332 70,169.99996 0,51.33333 -14.66667,97.5 -44,138.5 -29.33333,41 -68,70.16667 -116,87.5 z"
       id="path972"
       sodipodi:nodetypes="cccccccccccccccccccccccccccccsssscccssssc"
       style="fill:#e0af68" /><path
       d="m 232.54473,-201.7583 h 180 c 16.66667,0 30.83333,-5.83333 42.5,-17.5 11.66667,-11.66667 17.5,-25.83333 17.5,-42.5 0,-16.66667 -5.66667,-30.83333 -17,-42.5 -11.33333,-11.66667 -25.33333,-17.5 -42,-17.5 h -51 l -20,-48 c -9.33333,-22 -24,-39.5 -44,-52.5 -20,-13 -42,-19.5 -66,-19.5 -33.33333,0 -61.66667,11.66667 -85,35 -23.33333,23.33333 -35,51.66667 -35,85 0,33.33333 11.66667,61.66667 35,85 23.33333,23.33333 51.66667,35 85,35 z m 0,80 c -55.33333,0 -102.5,-19.5 -141.499993,-58.5 -38.999999,-39 -58.499999,-86.16667 -58.499999,-141.5 0,-55.33333 19.5,-102.5 58.499999,-141.5 77.572013,-63.12684 171.947663,-76.70726 250.999993,-26 33,21.66667 57.5,50.83333 73.5,87.5 38.66667,0 71.16667,14.33333 97.5,43 26.33333,28.66667 39.5,63 39.5,103 -1.33333,38 -15.5,69.83333 -42.5,95.5 -27,25.66667 -59.5,38.5 -97.5,38.5 z m 320,-134 c -373.33333,-470.66667 -186.66667,-235.33333 0,0 z"
       id="path2"
       sodipodi:nodetypes="ssssssccssssssssscccscssscc"
       style="fill:#b3b3b3" /></g></svg>
